M48
; DRILL file {KiCad (6.0.5)} date Tue Jan 23 17:08:58 2024
; FORMAT={-:-/ absolute / metric / decimal}
; #@! TF.CreationDate,2024-01-23T17:08:58+09:00
; #@! TF.GenerationSoftware,Kicad,Pcbnew,(6.0.5)
; #@! TF.FileFunction,Plated,1,2,PTH
FMAT,2
METRIC
; #@! TA.AperFunction,Plated,PTH,ViaDrill
T1C0.400
; #@! TA.AperFunction,Plated,PTH,ComponentDrill
T2C0.600
; #@! TA.AperFunction,Plated,PTH,ComponentDrill
T3C1.000
; #@! TA.AperFunction,Plated,PTH,ComponentDrill
T4C3.048
%
G90
G05
T1
X121.3Y-90.1
X122.2Y-87.8
X123.05Y-98.85
X126.225Y-104.325
X127.975Y-83.975
X129.15Y-106.725
X129.75Y-100.05
X129.975Y-90.85
X130.025Y-95.9
X132.025Y-93.525
X132.425Y-97.05
X133.375Y-81.8
X133.975Y-108.5
X134.6Y-96.175
X136.125Y-112.525
X136.9Y-105.6
X138.6Y-99.9
X139.675Y-105.575
X140.3Y-99.775
X140.775Y-101.975
X141.15Y-94.05
X143.85Y-97.15
X144.75Y-95.05
X147.225Y-109.0
X147.35Y-97.875
X147.375Y-100.05
X148.525Y-120.85
X148.925Y-123.525
X149.225Y-110.65
X149.275Y-108.625
X149.6Y-101.2
X149.6Y-102.925
X149.775Y-105.65
X149.975Y-109.5
X150.025Y-111.85
X150.7Y-102.225
X150.75Y-103.9
X152.55Y-103.825
X154.0Y-104.862
X154.1Y-101.875
X154.4Y-122.475
X154.775Y-92.85
X155.83Y-99.93
X155.975Y-84.15
X156.125Y-90.75
X156.475Y-103.9
X158.4Y-124.4
X158.45Y-101.1
X158.7Y-99.15
X160.5Y-115.9
X162.275Y-97.7
X162.975Y-103.0
X163.475Y-105.775
X164.325Y-100.625
X166.137Y-99.65
X166.825Y-121.35
X167.375Y-104.75
X168.512Y-106.224
X170.625Y-103.25
X173.225Y-121.375
X173.25Y-124.25
X174.2Y-102.8
X176.175Y-87.8
X177.65Y-98.7
T3
X136.141Y-78.938
X136.625Y-87.425
X136.625Y-89.965
X138.681Y-78.938
X140.075Y-87.425
X140.075Y-89.965
X140.205Y-127.198
X141.221Y-78.938
X142.745Y-127.198
X143.525Y-84.9
X143.525Y-87.44
X143.525Y-89.98
X143.761Y-78.938
X145.285Y-127.198
X146.301Y-78.938
X147.825Y-127.198
X148.841Y-78.938
X150.365Y-127.198
X151.381Y-78.938
X152.905Y-127.198
X153.921Y-78.938
X155.445Y-127.198
X157.985Y-78.938
X157.985Y-127.198
X158.3Y-87.425
X158.3Y-89.965
X160.525Y-78.938
X161.75Y-87.425
X161.75Y-89.965
X163.065Y-78.938
X163.065Y-127.198
X165.2Y-84.9
X165.2Y-87.44
X165.2Y-89.98
X165.605Y-78.938
X165.605Y-127.198
X168.145Y-78.938
X168.145Y-127.198
X170.685Y-78.938
X170.685Y-127.198
X173.225Y-78.938
X173.225Y-127.198
X175.765Y-78.938
X175.765Y-127.198
X177.35Y-101.625
X177.35Y-104.165
X177.35Y-106.705
T4
X126.235Y-127.198
X127.505Y-78.938
X178.305Y-94.178
X178.305Y-122.118
T2
G00X115.275Y-84.78
M15
G01X114.675Y-84.78
M16
G05
G00X115.275Y-93.42
M15
G01X114.675Y-93.42
M16
G05
G00X119.705Y-84.78
M15
G01X118.605Y-84.78
M16
G05
G00X119.705Y-93.42
M15
G01X118.605Y-93.42
M16
G05
T3
G00X117.7Y-116.093
M15
G01X117.7Y-118.093
M16
G05
G00X119.7Y-121.792
M15
G01X121.7Y-121.792
M16
G05
G00X123.7Y-116.093
M15
G01X123.7Y-118.093
M16
G05
T0
M30
