%TF.GenerationSoftware,KiCad,Pcbnew,(6.0.5)*%
%TF.CreationDate,2024-01-23T17:09:02+09:00*%
%TF.ProjectId,PicoIno,5069636f-496e-46f2-9e6b-696361645f70,rev?*%
%TF.SameCoordinates,Original*%
%TF.FileFunction,Legend,Top*%
%TF.FilePolarity,Positive*%
%FSLAX46Y46*%
G04 Gerber Fmt 4.6, Leading zero omitted, Abs format (unit mm)*
G04 Created by KiCad (PCBNEW (6.0.5)) date 2024-01-23 17:09:02*
%MOMM*%
%LPD*%
G01*
G04 APERTURE LIST*
%ADD10C,0.150000*%
%ADD11C,0.200000*%
%ADD12C,0.120000*%
%ADD13C,0.400000*%
%ADD14C,0.100000*%
%ADD15C,4.064000*%
G04 APERTURE END LIST*
D10*
X173866666Y-103850000D02*
X173800000Y-103816666D01*
X173700000Y-103816666D01*
X173600000Y-103850000D01*
X173533333Y-103916666D01*
X173500000Y-103983333D01*
X173466666Y-104116666D01*
X173466666Y-104216666D01*
X173500000Y-104350000D01*
X173533333Y-104416666D01*
X173600000Y-104483333D01*
X173700000Y-104516666D01*
X173766666Y-104516666D01*
X173866666Y-104483333D01*
X173900000Y-104450000D01*
X173900000Y-104216666D01*
X173766666Y-104216666D01*
X174200000Y-104516666D02*
X174200000Y-103816666D01*
X174600000Y-104516666D01*
X174600000Y-103816666D01*
X174933333Y-104516666D02*
X174933333Y-103816666D01*
X175100000Y-103816666D01*
X175200000Y-103850000D01*
X175266666Y-103916666D01*
X175300000Y-103983333D01*
X175333333Y-104116666D01*
X175333333Y-104216666D01*
X175300000Y-104350000D01*
X175266666Y-104416666D01*
X175200000Y-104483333D01*
X175100000Y-104516666D01*
X174933333Y-104516666D01*
X172316666Y-107083333D02*
X172416666Y-107116666D01*
X172583333Y-107116666D01*
X172650000Y-107083333D01*
X172683333Y-107050000D01*
X172716666Y-106983333D01*
X172716666Y-106916666D01*
X172683333Y-106850000D01*
X172650000Y-106816666D01*
X172583333Y-106783333D01*
X172450000Y-106750000D01*
X172383333Y-106716666D01*
X172350000Y-106683333D01*
X172316666Y-106616666D01*
X172316666Y-106550000D01*
X172350000Y-106483333D01*
X172383333Y-106450000D01*
X172450000Y-106416666D01*
X172616666Y-106416666D01*
X172716666Y-106450000D01*
X172950000Y-106416666D02*
X173116666Y-107116666D01*
X173250000Y-106616666D01*
X173383333Y-107116666D01*
X173550000Y-106416666D01*
X173816666Y-107116666D02*
X173816666Y-106416666D01*
X173983333Y-106416666D01*
X174083333Y-106450000D01*
X174150000Y-106516666D01*
X174183333Y-106583333D01*
X174216666Y-106716666D01*
X174216666Y-106816666D01*
X174183333Y-106950000D01*
X174150000Y-107016666D01*
X174083333Y-107083333D01*
X173983333Y-107116666D01*
X173816666Y-107116666D01*
X174516666Y-107116666D02*
X174516666Y-106416666D01*
X174983333Y-106416666D02*
X175116666Y-106416666D01*
X175183333Y-106450000D01*
X175250000Y-106516666D01*
X175283333Y-106650000D01*
X175283333Y-106883333D01*
X175250000Y-107016666D01*
X175183333Y-107083333D01*
X175116666Y-107116666D01*
X174983333Y-107116666D01*
X174916666Y-107083333D01*
X174850000Y-107016666D01*
X174816666Y-106883333D01*
X174816666Y-106650000D01*
X174850000Y-106516666D01*
X174916666Y-106450000D01*
X174983333Y-106416666D01*
X172216666Y-101883333D02*
X172316666Y-101916666D01*
X172483333Y-101916666D01*
X172550000Y-101883333D01*
X172583333Y-101850000D01*
X172616666Y-101783333D01*
X172616666Y-101716666D01*
X172583333Y-101650000D01*
X172550000Y-101616666D01*
X172483333Y-101583333D01*
X172350000Y-101550000D01*
X172283333Y-101516666D01*
X172250000Y-101483333D01*
X172216666Y-101416666D01*
X172216666Y-101350000D01*
X172250000Y-101283333D01*
X172283333Y-101250000D01*
X172350000Y-101216666D01*
X172516666Y-101216666D01*
X172616666Y-101250000D01*
X172850000Y-101216666D02*
X173016666Y-101916666D01*
X173150000Y-101416666D01*
X173283333Y-101916666D01*
X173450000Y-101216666D01*
X174116666Y-101850000D02*
X174083333Y-101883333D01*
X173983333Y-101916666D01*
X173916666Y-101916666D01*
X173816666Y-101883333D01*
X173750000Y-101816666D01*
X173716666Y-101750000D01*
X173683333Y-101616666D01*
X173683333Y-101516666D01*
X173716666Y-101383333D01*
X173750000Y-101316666D01*
X173816666Y-101250000D01*
X173916666Y-101216666D01*
X173983333Y-101216666D01*
X174083333Y-101250000D01*
X174116666Y-101283333D01*
X174750000Y-101916666D02*
X174416666Y-101916666D01*
X174416666Y-101216666D01*
X174983333Y-101916666D02*
X174983333Y-101216666D01*
X175383333Y-101916666D02*
X175083333Y-101516666D01*
X175383333Y-101216666D02*
X174983333Y-101616666D01*
X170676190Y-98852380D02*
X170580952Y-98804761D01*
X170533333Y-98757142D01*
X170485714Y-98661904D01*
X170485714Y-98376190D01*
X170533333Y-98280952D01*
X170580952Y-98233333D01*
X170676190Y-98185714D01*
X170819047Y-98185714D01*
X170914285Y-98233333D01*
X170961904Y-98280952D01*
X171009523Y-98376190D01*
X171009523Y-98661904D01*
X170961904Y-98757142D01*
X170914285Y-98804761D01*
X170819047Y-98852380D01*
X170676190Y-98852380D01*
X171438095Y-98185714D02*
X171438095Y-98852380D01*
X171438095Y-98280952D02*
X171485714Y-98233333D01*
X171580952Y-98185714D01*
X171723809Y-98185714D01*
X171819047Y-98233333D01*
X171866666Y-98328571D01*
X171866666Y-98852380D01*
X141300000Y-85100000D02*
X141600000Y-84800000D01*
X163000000Y-84500000D02*
X163300000Y-84800000D01*
X156100000Y-95400000D02*
X173400000Y-95400000D01*
X162500000Y-84800000D02*
X163300000Y-84800000D01*
X173400000Y-95400000D02*
X177500000Y-91300000D01*
X134300000Y-95400000D02*
X155700000Y-95400000D01*
X134300000Y-77200000D02*
X134300000Y-95400000D01*
X156100000Y-77200000D02*
X156100000Y-95400000D01*
X163000000Y-85100000D02*
X163300000Y-84800000D01*
X177500000Y-91300000D02*
X177500000Y-77500000D01*
X141300000Y-84500000D02*
X141600000Y-84800000D01*
X155700000Y-95400000D02*
X155700000Y-77200000D01*
X140800000Y-84800000D02*
X141600000Y-84800000D01*
X161177380Y-92915476D02*
X161177380Y-93391666D01*
X161653571Y-93439285D01*
X161605952Y-93391666D01*
X161558333Y-93296428D01*
X161558333Y-93058333D01*
X161605952Y-92963095D01*
X161653571Y-92915476D01*
X161748809Y-92867857D01*
X161986904Y-92867857D01*
X162082142Y-92915476D01*
X162129761Y-92963095D01*
X162177380Y-93058333D01*
X162177380Y-93296428D01*
X162129761Y-93391666D01*
X162082142Y-93439285D01*
X161177380Y-92582142D02*
X162177380Y-92248809D01*
X161177380Y-91915476D01*
X172752380Y-125133333D02*
X173752380Y-124466666D01*
X172752380Y-124466666D02*
X173752380Y-125133333D01*
D11*
X114835714Y-125078571D02*
X114550000Y-125078571D01*
X114407142Y-125150000D01*
X114335714Y-125221428D01*
X114192857Y-125435714D01*
X114121428Y-125721428D01*
X114121428Y-126292857D01*
X114192857Y-126435714D01*
X114264285Y-126507142D01*
X114407142Y-126578571D01*
X114692857Y-126578571D01*
X114835714Y-126507142D01*
X114907142Y-126435714D01*
X114978571Y-126292857D01*
X114978571Y-125935714D01*
X114907142Y-125792857D01*
X114835714Y-125721428D01*
X114692857Y-125650000D01*
X114407142Y-125650000D01*
X114264285Y-125721428D01*
X114192857Y-125792857D01*
X114121428Y-125935714D01*
X116550000Y-126007142D02*
X116621428Y-125935714D01*
X116764285Y-125864285D01*
X117050000Y-126007142D01*
X117192857Y-125935714D01*
X117264285Y-125864285D01*
X119764285Y-126578571D02*
X118907142Y-126578571D01*
X119335714Y-126578571D02*
X119335714Y-125078571D01*
X119192857Y-125292857D01*
X119050000Y-125435714D01*
X118907142Y-125507142D01*
X120335714Y-125221428D02*
X120407142Y-125150000D01*
X120550000Y-125078571D01*
X120907142Y-125078571D01*
X121050000Y-125150000D01*
X121121428Y-125221428D01*
X121192857Y-125364285D01*
X121192857Y-125507142D01*
X121121428Y-125721428D01*
X120264285Y-126578571D01*
X121192857Y-126578571D01*
X121621428Y-125078571D02*
X122121428Y-126578571D01*
X122621428Y-125078571D01*
D10*
X175252380Y-81322619D02*
X175252380Y-81227380D01*
X175300000Y-81132142D01*
X175347619Y-81084523D01*
X175442857Y-81036904D01*
X175633333Y-80989285D01*
X175871428Y-80989285D01*
X176061904Y-81036904D01*
X176157142Y-81084523D01*
X176204761Y-81132142D01*
X176252380Y-81227380D01*
X176252380Y-81322619D01*
X176204761Y-81417857D01*
X176157142Y-81465476D01*
X176061904Y-81513095D01*
X175871428Y-81560714D01*
X175633333Y-81560714D01*
X175442857Y-81513095D01*
X175347619Y-81465476D01*
X175300000Y-81417857D01*
X175252380Y-81322619D01*
X167647619Y-125161904D02*
X167600000Y-125114285D01*
X167552380Y-125019047D01*
X167552380Y-124780952D01*
X167600000Y-124685714D01*
X167647619Y-124638095D01*
X167742857Y-124590476D01*
X167838095Y-124590476D01*
X167980952Y-124638095D01*
X168552380Y-125209523D01*
X168552380Y-124590476D01*
X167980952Y-124019047D02*
X167933333Y-124114285D01*
X167885714Y-124161904D01*
X167790476Y-124209523D01*
X167742857Y-124209523D01*
X167647619Y-124161904D01*
X167600000Y-124114285D01*
X167552380Y-124019047D01*
X167552380Y-123828571D01*
X167600000Y-123733333D01*
X167647619Y-123685714D01*
X167742857Y-123638095D01*
X167790476Y-123638095D01*
X167885714Y-123685714D01*
X167933333Y-123733333D01*
X167980952Y-123828571D01*
X167980952Y-124019047D01*
X168028571Y-124114285D01*
X168076190Y-124161904D01*
X168171428Y-124209523D01*
X168361904Y-124209523D01*
X168457142Y-124161904D01*
X168504761Y-124114285D01*
X168552380Y-124019047D01*
X168552380Y-123828571D01*
X168504761Y-123733333D01*
X168457142Y-123685714D01*
X168361904Y-123638095D01*
X168171428Y-123638095D01*
X168076190Y-123685714D01*
X168028571Y-123733333D01*
X167980952Y-123828571D01*
X138300000Y-82761904D02*
X138252380Y-82857142D01*
X138252380Y-83000000D01*
X138300000Y-83142857D01*
X138395238Y-83238095D01*
X138490476Y-83285714D01*
X138680952Y-83333333D01*
X138823809Y-83333333D01*
X139014285Y-83285714D01*
X139109523Y-83238095D01*
X139204761Y-83142857D01*
X139252380Y-83000000D01*
X139252380Y-82904761D01*
X139204761Y-82761904D01*
X139157142Y-82714285D01*
X138823809Y-82714285D01*
X138823809Y-82904761D01*
X139252380Y-82285714D02*
X138252380Y-82285714D01*
X139252380Y-81714285D01*
X138252380Y-81714285D01*
X139252380Y-81238095D02*
X138252380Y-81238095D01*
X138252380Y-81000000D01*
X138300000Y-80857142D01*
X138395238Y-80761904D01*
X138490476Y-80714285D01*
X138680952Y-80666666D01*
X138823809Y-80666666D01*
X139014285Y-80714285D01*
X139109523Y-80761904D01*
X139204761Y-80857142D01*
X139252380Y-81000000D01*
X139252380Y-81238095D01*
X157477380Y-81708333D02*
X157477380Y-81041666D01*
X158477380Y-81470238D01*
X151852380Y-81585469D02*
X151852380Y-81394993D01*
X151804761Y-81299754D01*
X151757142Y-81252135D01*
X151614285Y-81156897D01*
X151423809Y-81109278D01*
X151042857Y-81109278D01*
X150947619Y-81156897D01*
X150900000Y-81204516D01*
X150852380Y-81299754D01*
X150852380Y-81490231D01*
X150900000Y-81585469D01*
X150947619Y-81633088D01*
X151042857Y-81680707D01*
X151280952Y-81680707D01*
X151376190Y-81633088D01*
X151423809Y-81585469D01*
X151471428Y-81490231D01*
X151471428Y-81299754D01*
X151423809Y-81204516D01*
X151376190Y-81156897D01*
X151280952Y-81109278D01*
X149252380Y-81590476D02*
X149252380Y-82161904D01*
X149252380Y-81876190D02*
X148252380Y-81876190D01*
X148395238Y-81971428D01*
X148490476Y-82066666D01*
X148538095Y-82161904D01*
X148252380Y-80971428D02*
X148252380Y-80876190D01*
X148300000Y-80780952D01*
X148347619Y-80733333D01*
X148442857Y-80685714D01*
X148633333Y-80638095D01*
X148871428Y-80638095D01*
X149061904Y-80685714D01*
X149157142Y-80733333D01*
X149204761Y-80780952D01*
X149252380Y-80876190D01*
X149252380Y-80971428D01*
X149204761Y-81066666D01*
X149157142Y-81114285D01*
X149061904Y-81161904D01*
X148871428Y-81209523D01*
X148633333Y-81209523D01*
X148442857Y-81161904D01*
X148347619Y-81114285D01*
X148300000Y-81066666D01*
X148252380Y-80971428D01*
X175252380Y-125133333D02*
X176252380Y-124466666D01*
X175252380Y-124466666D02*
X176252380Y-125133333D01*
X165679761Y-94195238D02*
X165727380Y-94052380D01*
X165727380Y-93814285D01*
X165679761Y-93719047D01*
X165632142Y-93671428D01*
X165536904Y-93623809D01*
X165441666Y-93623809D01*
X165346428Y-93671428D01*
X165298809Y-93719047D01*
X165251190Y-93814285D01*
X165203571Y-94004761D01*
X165155952Y-94100000D01*
X165108333Y-94147619D01*
X165013095Y-94195238D01*
X164917857Y-94195238D01*
X164822619Y-94147619D01*
X164775000Y-94100000D01*
X164727380Y-94004761D01*
X164727380Y-93766666D01*
X164775000Y-93623809D01*
X165822619Y-93433333D02*
X165822619Y-92671428D01*
X164727380Y-92576190D02*
X165727380Y-92242857D01*
X164727380Y-91909523D01*
X165485714Y-81134523D02*
X166152380Y-81134523D01*
X165104761Y-81372619D02*
X165819047Y-81610714D01*
X165819047Y-80991666D01*
D12*
X129683333Y-83716666D02*
X129350000Y-83716666D01*
X129350000Y-83016666D01*
X129916666Y-83350000D02*
X130150000Y-83350000D01*
X130250000Y-83716666D02*
X129916666Y-83716666D01*
X129916666Y-83016666D01*
X130250000Y-83016666D01*
X130550000Y-83716666D02*
X130550000Y-83016666D01*
X130716666Y-83016666D01*
X130816666Y-83050000D01*
X130883333Y-83116666D01*
X130916666Y-83183333D01*
X130950000Y-83316666D01*
X130950000Y-83416666D01*
X130916666Y-83550000D01*
X130883333Y-83616666D01*
X130816666Y-83683333D01*
X130716666Y-83716666D01*
X130550000Y-83716666D01*
X131083333Y-83783333D02*
X131616666Y-83783333D01*
X131783333Y-83716666D02*
X131783333Y-83016666D01*
X132250000Y-83016666D02*
X132383333Y-83016666D01*
X132450000Y-83050000D01*
X132516666Y-83116666D01*
X132550000Y-83250000D01*
X132550000Y-83483333D01*
X132516666Y-83616666D01*
X132450000Y-83683333D01*
X132383333Y-83716666D01*
X132250000Y-83716666D01*
X132183333Y-83683333D01*
X132116666Y-83616666D01*
X132083333Y-83483333D01*
X132083333Y-83250000D01*
X132116666Y-83116666D01*
X132183333Y-83050000D01*
X132250000Y-83016666D01*
X133216666Y-83716666D02*
X132816666Y-83716666D01*
X133016666Y-83716666D02*
X133016666Y-83016666D01*
X132950000Y-83116666D01*
X132883333Y-83183333D01*
X132816666Y-83216666D01*
X133450000Y-83016666D02*
X133883333Y-83016666D01*
X133650000Y-83283333D01*
X133750000Y-83283333D01*
X133816666Y-83316666D01*
X133850000Y-83350000D01*
X133883333Y-83416666D01*
X133883333Y-83583333D01*
X133850000Y-83650000D01*
X133816666Y-83683333D01*
X133750000Y-83716666D01*
X133550000Y-83716666D01*
X133483333Y-83683333D01*
X133450000Y-83650000D01*
D10*
X136127380Y-94926190D02*
X136127380Y-94307142D01*
X136508333Y-94640476D01*
X136508333Y-94497619D01*
X136555952Y-94402380D01*
X136603571Y-94354761D01*
X136698809Y-94307142D01*
X136936904Y-94307142D01*
X137032142Y-94354761D01*
X137079761Y-94402380D01*
X137127380Y-94497619D01*
X137127380Y-94783333D01*
X137079761Y-94878571D01*
X137032142Y-94926190D01*
X137032142Y-93878571D02*
X137079761Y-93830952D01*
X137127380Y-93878571D01*
X137079761Y-93926190D01*
X137032142Y-93878571D01*
X137127380Y-93878571D01*
X136127380Y-93497619D02*
X136127380Y-92878571D01*
X136508333Y-93211904D01*
X136508333Y-93069047D01*
X136555952Y-92973809D01*
X136603571Y-92926190D01*
X136698809Y-92878571D01*
X136936904Y-92878571D01*
X137032142Y-92926190D01*
X137079761Y-92973809D01*
X137127380Y-93069047D01*
X137127380Y-93354761D01*
X137079761Y-93450000D01*
X137032142Y-93497619D01*
X136127380Y-92592857D02*
X137127380Y-92259523D01*
X136127380Y-91926190D01*
D12*
X148666666Y-98961904D02*
X148400000Y-98580952D01*
X148209523Y-98961904D02*
X148209523Y-98161904D01*
X148514285Y-98161904D01*
X148590476Y-98200000D01*
X148628571Y-98238095D01*
X148666666Y-98314285D01*
X148666666Y-98428571D01*
X148628571Y-98504761D01*
X148590476Y-98542857D01*
X148514285Y-98580952D01*
X148209523Y-98580952D01*
X149009523Y-98961904D02*
X149009523Y-98161904D01*
X149314285Y-98161904D01*
X149390476Y-98200000D01*
X149428571Y-98238095D01*
X149466666Y-98314285D01*
X149466666Y-98428571D01*
X149428571Y-98504761D01*
X149390476Y-98542857D01*
X149314285Y-98580952D01*
X149009523Y-98580952D01*
X149771428Y-98238095D02*
X149809523Y-98200000D01*
X149885714Y-98161904D01*
X150076190Y-98161904D01*
X150152380Y-98200000D01*
X150190476Y-98238095D01*
X150228571Y-98314285D01*
X150228571Y-98390476D01*
X150190476Y-98504761D01*
X149733333Y-98961904D01*
X150228571Y-98961904D01*
X150838095Y-98542857D02*
X150952380Y-98580952D01*
X150990476Y-98619047D01*
X151028571Y-98695238D01*
X151028571Y-98809523D01*
X150990476Y-98885714D01*
X150952380Y-98923809D01*
X150876190Y-98961904D01*
X150571428Y-98961904D01*
X150571428Y-98161904D01*
X150838095Y-98161904D01*
X150914285Y-98200000D01*
X150952380Y-98238095D01*
X150990476Y-98314285D01*
X150990476Y-98390476D01*
X150952380Y-98466666D01*
X150914285Y-98504761D01*
X150838095Y-98542857D01*
X150571428Y-98542857D01*
D10*
X141852380Y-81590476D02*
X141852380Y-82161904D01*
X141852380Y-81876190D02*
X140852380Y-81876190D01*
X140995238Y-81971428D01*
X141090476Y-82066666D01*
X141138095Y-82161904D01*
X140852380Y-81257142D02*
X140852380Y-80638095D01*
X141233333Y-80971428D01*
X141233333Y-80828571D01*
X141280952Y-80733333D01*
X141328571Y-80685714D01*
X141423809Y-80638095D01*
X141661904Y-80638095D01*
X141757142Y-80685714D01*
X141804761Y-80733333D01*
X141852380Y-80828571D01*
X141852380Y-81114285D01*
X141804761Y-81209523D01*
X141757142Y-81257142D01*
X170322619Y-81560714D02*
X170275000Y-81513095D01*
X170227380Y-81417857D01*
X170227380Y-81179761D01*
X170275000Y-81084523D01*
X170322619Y-81036904D01*
X170417857Y-80989285D01*
X170513095Y-80989285D01*
X170655952Y-81036904D01*
X171227380Y-81608333D01*
X171227380Y-80989285D01*
X167627380Y-81608333D02*
X167627380Y-80989285D01*
X168008333Y-81322619D01*
X168008333Y-81179761D01*
X168055952Y-81084523D01*
X168103571Y-81036904D01*
X168198809Y-80989285D01*
X168436904Y-80989285D01*
X168532142Y-81036904D01*
X168579761Y-81084523D01*
X168627380Y-81179761D01*
X168627380Y-81465476D01*
X168579761Y-81560714D01*
X168532142Y-81608333D01*
X162552380Y-81086904D02*
X162552380Y-81563095D01*
X163028571Y-81610714D01*
X162980952Y-81563095D01*
X162933333Y-81467857D01*
X162933333Y-81229761D01*
X162980952Y-81134523D01*
X163028571Y-81086904D01*
X163123809Y-81039285D01*
X163361904Y-81039285D01*
X163457142Y-81086904D01*
X163504761Y-81134523D01*
X163552380Y-81229761D01*
X163552380Y-81467857D01*
X163504761Y-81563095D01*
X163457142Y-81610714D01*
X162647619Y-125161904D02*
X162600000Y-125114285D01*
X162552380Y-125019047D01*
X162552380Y-124780952D01*
X162600000Y-124685714D01*
X162647619Y-124638095D01*
X162742857Y-124590476D01*
X162838095Y-124590476D01*
X162980952Y-124638095D01*
X163552380Y-125209523D01*
X163552380Y-124590476D01*
X162552380Y-123733333D02*
X162552380Y-123923809D01*
X162600000Y-124019047D01*
X162647619Y-124066666D01*
X162790476Y-124161904D01*
X162980952Y-124209523D01*
X163361904Y-124209523D01*
X163457142Y-124161904D01*
X163504761Y-124114285D01*
X163552380Y-124019047D01*
X163552380Y-123828571D01*
X163504761Y-123733333D01*
X163457142Y-123685714D01*
X163361904Y-123638095D01*
X163123809Y-123638095D01*
X163028571Y-123685714D01*
X162980952Y-123733333D01*
X162933333Y-123828571D01*
X162933333Y-124019047D01*
X162980952Y-124114285D01*
X163028571Y-124161904D01*
X163123809Y-124209523D01*
D13*
X128128571Y-112357142D02*
X128128571Y-109357142D01*
X129271428Y-109357142D01*
X129557142Y-109500000D01*
X129700000Y-109642857D01*
X129842857Y-109928571D01*
X129842857Y-110357142D01*
X129700000Y-110642857D01*
X129557142Y-110785714D01*
X129271428Y-110928571D01*
X128128571Y-110928571D01*
X131128571Y-112357142D02*
X131128571Y-110357142D01*
X131128571Y-109357142D02*
X130985714Y-109500000D01*
X131128571Y-109642857D01*
X131271428Y-109500000D01*
X131128571Y-109357142D01*
X131128571Y-109642857D01*
X133842857Y-112214285D02*
X133557142Y-112357142D01*
X132985714Y-112357142D01*
X132700000Y-112214285D01*
X132557142Y-112071428D01*
X132414285Y-111785714D01*
X132414285Y-110928571D01*
X132557142Y-110642857D01*
X132700000Y-110500000D01*
X132985714Y-110357142D01*
X133557142Y-110357142D01*
X133842857Y-110500000D01*
X135557142Y-112357142D02*
X135271428Y-112214285D01*
X135128571Y-112071428D01*
X134985714Y-111785714D01*
X134985714Y-110928571D01*
X135128571Y-110642857D01*
X135271428Y-110500000D01*
X135557142Y-110357142D01*
X135985714Y-110357142D01*
X136271428Y-110500000D01*
X136414285Y-110642857D01*
X136557142Y-110928571D01*
X136557142Y-111785714D01*
X136414285Y-112071428D01*
X136271428Y-112214285D01*
X135985714Y-112357142D01*
X135557142Y-112357142D01*
X137842857Y-112357142D02*
X137842857Y-109357142D01*
X139271428Y-110357142D02*
X139271428Y-112357142D01*
X139271428Y-110642857D02*
X139414285Y-110500000D01*
X139700000Y-110357142D01*
X140128571Y-110357142D01*
X140414285Y-110500000D01*
X140557142Y-110785714D01*
X140557142Y-112357142D01*
X142414285Y-112357142D02*
X142128571Y-112214285D01*
X141985714Y-112071428D01*
X141842857Y-111785714D01*
X141842857Y-110928571D01*
X141985714Y-110642857D01*
X142128571Y-110500000D01*
X142414285Y-110357142D01*
X142842857Y-110357142D01*
X143128571Y-110500000D01*
X143271428Y-110642857D01*
X143414285Y-110928571D01*
X143414285Y-111785714D01*
X143271428Y-112071428D01*
X143128571Y-112214285D01*
X142842857Y-112357142D01*
X142414285Y-112357142D01*
D10*
X144252380Y-81590476D02*
X144252380Y-82161904D01*
X144252380Y-81876190D02*
X143252380Y-81876190D01*
X143395238Y-81971428D01*
X143490476Y-82066666D01*
X143538095Y-82161904D01*
X143347619Y-81209523D02*
X143300000Y-81161904D01*
X143252380Y-81066666D01*
X143252380Y-80828571D01*
X143300000Y-80733333D01*
X143347619Y-80685714D01*
X143442857Y-80638095D01*
X143538095Y-80638095D01*
X143680952Y-80685714D01*
X144252380Y-81257142D01*
X144252380Y-80638095D01*
X142252380Y-124690476D02*
X142252380Y-125166666D01*
X142728571Y-125214285D01*
X142680952Y-125166666D01*
X142633333Y-125071428D01*
X142633333Y-124833333D01*
X142680952Y-124738095D01*
X142728571Y-124690476D01*
X142823809Y-124642857D01*
X143061904Y-124642857D01*
X143157142Y-124690476D01*
X143204761Y-124738095D01*
X143252380Y-124833333D01*
X143252380Y-125071428D01*
X143204761Y-125166666D01*
X143157142Y-125214285D01*
X142252380Y-124357142D02*
X143252380Y-124023809D01*
X142252380Y-123690476D01*
X173727380Y-80989285D02*
X173727380Y-81560714D01*
X173727380Y-81275000D02*
X172727380Y-81275000D01*
X172870238Y-81370238D01*
X172965476Y-81465476D01*
X173013095Y-81560714D01*
X152500000Y-124653758D02*
X152452380Y-124748996D01*
X152452380Y-124891854D01*
X152500000Y-125034711D01*
X152595238Y-125129949D01*
X152690476Y-125177568D01*
X152880952Y-125225187D01*
X153023809Y-125225187D01*
X153214285Y-125177568D01*
X153309523Y-125129949D01*
X153404761Y-125034711D01*
X153452380Y-124891854D01*
X153452380Y-124796615D01*
X153404761Y-124653758D01*
X153357142Y-124606139D01*
X153023809Y-124606139D01*
X153023809Y-124796615D01*
X153452380Y-124177568D02*
X152452380Y-124177568D01*
X153452380Y-123606139D01*
X152452380Y-123606139D01*
X153452380Y-123129949D02*
X152452380Y-123129949D01*
X152452380Y-122891854D01*
X152500000Y-122748996D01*
X152595238Y-122653758D01*
X152690476Y-122606139D01*
X152880952Y-122558520D01*
X153023809Y-122558520D01*
X153214285Y-122606139D01*
X153309523Y-122653758D01*
X153404761Y-122748996D01*
X153452380Y-122891854D01*
X153452380Y-123129949D01*
X157552380Y-125176190D02*
X158552380Y-124842857D01*
X157552380Y-124509523D01*
X158647619Y-124414285D02*
X158647619Y-123652380D01*
X158552380Y-123414285D02*
X157552380Y-123414285D01*
X158552380Y-122938095D02*
X157552380Y-122938095D01*
X158552380Y-122366666D01*
X157552380Y-122366666D01*
D14*
X140426190Y-125254761D02*
X139926190Y-125254761D01*
X139926190Y-125064285D01*
X139950000Y-125016666D01*
X139973809Y-124992857D01*
X140021428Y-124969047D01*
X140092857Y-124969047D01*
X140140476Y-124992857D01*
X140164285Y-125016666D01*
X140188095Y-125064285D01*
X140188095Y-125254761D01*
X139926190Y-124659523D02*
X139926190Y-124564285D01*
X139950000Y-124516666D01*
X139997619Y-124469047D01*
X140092857Y-124445238D01*
X140259523Y-124445238D01*
X140354761Y-124469047D01*
X140402380Y-124516666D01*
X140426190Y-124564285D01*
X140426190Y-124659523D01*
X140402380Y-124707142D01*
X140354761Y-124754761D01*
X140259523Y-124778571D01*
X140092857Y-124778571D01*
X139997619Y-124754761D01*
X139950000Y-124707142D01*
X139926190Y-124659523D01*
X139926190Y-124278571D02*
X140426190Y-124159523D01*
X140069047Y-124064285D01*
X140426190Y-123969047D01*
X139926190Y-123850000D01*
X140164285Y-123659523D02*
X140164285Y-123492857D01*
X140426190Y-123421428D02*
X140426190Y-123659523D01*
X139926190Y-123659523D01*
X139926190Y-123421428D01*
X140426190Y-122921428D02*
X140188095Y-123088095D01*
X140426190Y-123207142D02*
X139926190Y-123207142D01*
X139926190Y-123016666D01*
X139950000Y-122969047D01*
X139973809Y-122945238D01*
X140021428Y-122921428D01*
X140092857Y-122921428D01*
X140140476Y-122945238D01*
X140164285Y-122969047D01*
X140188095Y-123016666D01*
X140188095Y-123207142D01*
D10*
X143979761Y-94170238D02*
X144027380Y-94027380D01*
X144027380Y-93789285D01*
X143979761Y-93694047D01*
X143932142Y-93646428D01*
X143836904Y-93598809D01*
X143741666Y-93598809D01*
X143646428Y-93646428D01*
X143598809Y-93694047D01*
X143551190Y-93789285D01*
X143503571Y-93979761D01*
X143455952Y-94075000D01*
X143408333Y-94122619D01*
X143313095Y-94170238D01*
X143217857Y-94170238D01*
X143122619Y-94122619D01*
X143075000Y-94075000D01*
X143027380Y-93979761D01*
X143027380Y-93741666D01*
X143075000Y-93598809D01*
X144122619Y-93408333D02*
X144122619Y-92646428D01*
X143027380Y-92551190D02*
X144027380Y-92217857D01*
X143027380Y-91884523D01*
X159977380Y-81159523D02*
X159977380Y-81350000D01*
X160025000Y-81445238D01*
X160072619Y-81492857D01*
X160215476Y-81588095D01*
X160405952Y-81635714D01*
X160786904Y-81635714D01*
X160882142Y-81588095D01*
X160929761Y-81540476D01*
X160977380Y-81445238D01*
X160977380Y-81254761D01*
X160929761Y-81159523D01*
X160882142Y-81111904D01*
X160786904Y-81064285D01*
X160548809Y-81064285D01*
X160453571Y-81111904D01*
X160405952Y-81159523D01*
X160358333Y-81254761D01*
X160358333Y-81445238D01*
X160405952Y-81540476D01*
X160453571Y-81588095D01*
X160548809Y-81635714D01*
X146652380Y-81590476D02*
X146652380Y-82161904D01*
X146652380Y-81876190D02*
X145652380Y-81876190D01*
X145795238Y-81971428D01*
X145890476Y-82066666D01*
X145938095Y-82161904D01*
X146652380Y-80638095D02*
X146652380Y-81209523D01*
X146652380Y-80923809D02*
X145652380Y-80923809D01*
X145795238Y-81019047D01*
X145890476Y-81114285D01*
X145938095Y-81209523D01*
X159690476Y-84385714D02*
X159928571Y-85052380D01*
X160166666Y-84385714D01*
X160309523Y-85147619D02*
X161071428Y-85147619D01*
X161309523Y-85052380D02*
X161309523Y-84385714D01*
X161309523Y-84052380D02*
X161261904Y-84100000D01*
X161309523Y-84147619D01*
X161357142Y-84100000D01*
X161309523Y-84052380D01*
X161309523Y-84147619D01*
X161785714Y-84385714D02*
X161785714Y-85052380D01*
X161785714Y-84480952D02*
X161833333Y-84433333D01*
X161928571Y-84385714D01*
X162071428Y-84385714D01*
X162166666Y-84433333D01*
X162214285Y-84528571D01*
X162214285Y-85052380D01*
X155000000Y-124661904D02*
X154952380Y-124757142D01*
X154952380Y-124900000D01*
X155000000Y-125042857D01*
X155095238Y-125138095D01*
X155190476Y-125185714D01*
X155380952Y-125233333D01*
X155523809Y-125233333D01*
X155714285Y-125185714D01*
X155809523Y-125138095D01*
X155904761Y-125042857D01*
X155952380Y-124900000D01*
X155952380Y-124804761D01*
X155904761Y-124661904D01*
X155857142Y-124614285D01*
X155523809Y-124614285D01*
X155523809Y-124804761D01*
X155952380Y-124185714D02*
X154952380Y-124185714D01*
X155952380Y-123614285D01*
X154952380Y-123614285D01*
X155952380Y-123138095D02*
X154952380Y-123138095D01*
X154952380Y-122900000D01*
X155000000Y-122757142D01*
X155095238Y-122661904D01*
X155190476Y-122614285D01*
X155380952Y-122566666D01*
X155523809Y-122566666D01*
X155714285Y-122614285D01*
X155809523Y-122661904D01*
X155904761Y-122757142D01*
X155952380Y-122900000D01*
X155952380Y-123138095D01*
X165147619Y-125161904D02*
X165100000Y-125114285D01*
X165052380Y-125019047D01*
X165052380Y-124780952D01*
X165100000Y-124685714D01*
X165147619Y-124638095D01*
X165242857Y-124590476D01*
X165338095Y-124590476D01*
X165480952Y-124638095D01*
X166052380Y-125209523D01*
X166052380Y-124590476D01*
X165052380Y-124257142D02*
X165052380Y-123590476D01*
X166052380Y-124019047D01*
X139577380Y-92915476D02*
X139577380Y-93391666D01*
X140053571Y-93439285D01*
X140005952Y-93391666D01*
X139958333Y-93296428D01*
X139958333Y-93058333D01*
X140005952Y-92963095D01*
X140053571Y-92915476D01*
X140148809Y-92867857D01*
X140386904Y-92867857D01*
X140482142Y-92915476D01*
X140529761Y-92963095D01*
X140577380Y-93058333D01*
X140577380Y-93296428D01*
X140529761Y-93391666D01*
X140482142Y-93439285D01*
X139577380Y-92582142D02*
X140577380Y-92248809D01*
X139577380Y-91915476D01*
X172542857Y-111428571D02*
X172685714Y-111476190D01*
X172733333Y-111523809D01*
X172780952Y-111619047D01*
X172780952Y-111761904D01*
X172733333Y-111857142D01*
X172685714Y-111904761D01*
X172590476Y-111952380D01*
X172209523Y-111952380D01*
X172209523Y-110952380D01*
X172542857Y-110952380D01*
X172638095Y-111000000D01*
X172685714Y-111047619D01*
X172733333Y-111142857D01*
X172733333Y-111238095D01*
X172685714Y-111333333D01*
X172638095Y-111380952D01*
X172542857Y-111428571D01*
X172209523Y-111428571D01*
X173400000Y-110952380D02*
X173590476Y-110952380D01*
X173685714Y-111000000D01*
X173780952Y-111095238D01*
X173828571Y-111285714D01*
X173828571Y-111619047D01*
X173780952Y-111809523D01*
X173685714Y-111904761D01*
X173590476Y-111952380D01*
X173400000Y-111952380D01*
X173304761Y-111904761D01*
X173209523Y-111809523D01*
X173161904Y-111619047D01*
X173161904Y-111285714D01*
X173209523Y-111095238D01*
X173304761Y-111000000D01*
X173400000Y-110952380D01*
X174447619Y-110952380D02*
X174638095Y-110952380D01*
X174733333Y-111000000D01*
X174828571Y-111095238D01*
X174876190Y-111285714D01*
X174876190Y-111619047D01*
X174828571Y-111809523D01*
X174733333Y-111904761D01*
X174638095Y-111952380D01*
X174447619Y-111952380D01*
X174352380Y-111904761D01*
X174257142Y-111809523D01*
X174209523Y-111619047D01*
X174209523Y-111285714D01*
X174257142Y-111095238D01*
X174352380Y-111000000D01*
X174447619Y-110952380D01*
X175161904Y-110952380D02*
X175733333Y-110952380D01*
X175447619Y-111952380D02*
X175447619Y-110952380D01*
X153980952Y-81495238D02*
X153933333Y-81590476D01*
X153885714Y-81638095D01*
X153790476Y-81685714D01*
X153742857Y-81685714D01*
X153647619Y-81638095D01*
X153600000Y-81590476D01*
X153552380Y-81495238D01*
X153552380Y-81304761D01*
X153600000Y-81209523D01*
X153647619Y-81161904D01*
X153742857Y-81114285D01*
X153790476Y-81114285D01*
X153885714Y-81161904D01*
X153933333Y-81209523D01*
X153980952Y-81304761D01*
X153980952Y-81495238D01*
X154028571Y-81590476D01*
X154076190Y-81638095D01*
X154171428Y-81685714D01*
X154361904Y-81685714D01*
X154457142Y-81638095D01*
X154504761Y-81590476D01*
X154552380Y-81495238D01*
X154552380Y-81304761D01*
X154504761Y-81209523D01*
X154457142Y-81161904D01*
X154361904Y-81114285D01*
X154171428Y-81114285D01*
X154076190Y-81161904D01*
X154028571Y-81209523D01*
X153980952Y-81304761D01*
X157802380Y-94926190D02*
X157802380Y-94307142D01*
X158183333Y-94640476D01*
X158183333Y-94497619D01*
X158230952Y-94402380D01*
X158278571Y-94354761D01*
X158373809Y-94307142D01*
X158611904Y-94307142D01*
X158707142Y-94354761D01*
X158754761Y-94402380D01*
X158802380Y-94497619D01*
X158802380Y-94783333D01*
X158754761Y-94878571D01*
X158707142Y-94926190D01*
X158707142Y-93878571D02*
X158754761Y-93830952D01*
X158802380Y-93878571D01*
X158754761Y-93926190D01*
X158707142Y-93878571D01*
X158802380Y-93878571D01*
X157802380Y-93497619D02*
X157802380Y-92878571D01*
X158183333Y-93211904D01*
X158183333Y-93069047D01*
X158230952Y-92973809D01*
X158278571Y-92926190D01*
X158373809Y-92878571D01*
X158611904Y-92878571D01*
X158707142Y-92926190D01*
X158754761Y-92973809D01*
X158802380Y-93069047D01*
X158802380Y-93354761D01*
X158754761Y-93450000D01*
X158707142Y-93497619D01*
X157802380Y-92592857D02*
X158802380Y-92259523D01*
X157802380Y-91926190D01*
X137990476Y-84385714D02*
X138228571Y-85052380D01*
X138466666Y-84385714D01*
X138609523Y-85147619D02*
X139371428Y-85147619D01*
X139609523Y-85052380D02*
X139609523Y-84385714D01*
X139609523Y-84052380D02*
X139561904Y-84100000D01*
X139609523Y-84147619D01*
X139657142Y-84100000D01*
X139609523Y-84052380D01*
X139609523Y-84147619D01*
X140085714Y-84385714D02*
X140085714Y-85052380D01*
X140085714Y-84480952D02*
X140133333Y-84433333D01*
X140228571Y-84385714D01*
X140371428Y-84385714D01*
X140466666Y-84433333D01*
X140514285Y-84528571D01*
X140514285Y-85052380D01*
X145852380Y-124638095D02*
X145376190Y-124971428D01*
X145852380Y-125209523D02*
X144852380Y-125209523D01*
X144852380Y-124828571D01*
X144900000Y-124733333D01*
X144947619Y-124685714D01*
X145042857Y-124638095D01*
X145185714Y-124638095D01*
X145280952Y-124685714D01*
X145328571Y-124733333D01*
X145376190Y-124828571D01*
X145376190Y-125209523D01*
X144852380Y-124209523D02*
X145661904Y-124209523D01*
X145757142Y-124161904D01*
X145804761Y-124114285D01*
X145852380Y-124019047D01*
X145852380Y-123828571D01*
X145804761Y-123733333D01*
X145757142Y-123685714D01*
X145661904Y-123638095D01*
X144852380Y-123638095D01*
X145852380Y-123161904D02*
X144852380Y-123161904D01*
X145852380Y-122590476D01*
X144852380Y-122590476D01*
X147352380Y-125138095D02*
X147352380Y-124519047D01*
X147733333Y-124852380D01*
X147733333Y-124709523D01*
X147780952Y-124614285D01*
X147828571Y-124566666D01*
X147923809Y-124519047D01*
X148161904Y-124519047D01*
X148257142Y-124566666D01*
X148304761Y-124614285D01*
X148352380Y-124709523D01*
X148352380Y-124995238D01*
X148304761Y-125090476D01*
X148257142Y-125138095D01*
X147352380Y-124233333D02*
X148352380Y-123900000D01*
X147352380Y-123566666D01*
X147352380Y-123328571D02*
X147352380Y-122709523D01*
X147733333Y-123042857D01*
X147733333Y-122900000D01*
X147780952Y-122804761D01*
X147828571Y-122757142D01*
X147923809Y-122709523D01*
X148161904Y-122709523D01*
X148257142Y-122757142D01*
X148304761Y-122804761D01*
X148352380Y-122900000D01*
X148352380Y-123185714D01*
X148304761Y-123280952D01*
X148257142Y-123328571D01*
X170152380Y-125133333D02*
X171152380Y-124466666D01*
X170152380Y-124466666D02*
X171152380Y-125133333D01*
X149952380Y-124590476D02*
X149952380Y-125066666D01*
X150428571Y-125114285D01*
X150380952Y-125066666D01*
X150333333Y-124971428D01*
X150333333Y-124733333D01*
X150380952Y-124638095D01*
X150428571Y-124590476D01*
X150523809Y-124542857D01*
X150761904Y-124542857D01*
X150857142Y-124590476D01*
X150904761Y-124638095D01*
X150952380Y-124733333D01*
X150952380Y-124971428D01*
X150904761Y-125066666D01*
X150857142Y-125114285D01*
X149952380Y-124257142D02*
X150952380Y-123923809D01*
X149952380Y-123590476D01*
%TO.C,U3*%
X124888095Y-94902380D02*
X124888095Y-95711904D01*
X124935714Y-95807142D01*
X124983333Y-95854761D01*
X125078571Y-95902380D01*
X125269047Y-95902380D01*
X125364285Y-95854761D01*
X125411904Y-95807142D01*
X125459523Y-95711904D01*
X125459523Y-94902380D01*
X125840476Y-94902380D02*
X126459523Y-94902380D01*
X126126190Y-95283333D01*
X126269047Y-95283333D01*
X126364285Y-95330952D01*
X126411904Y-95378571D01*
X126459523Y-95473809D01*
X126459523Y-95711904D01*
X126411904Y-95807142D01*
X126364285Y-95854761D01*
X126269047Y-95902380D01*
X125983333Y-95902380D01*
X125888095Y-95854761D01*
X125840476Y-95807142D01*
%TO.C,J2*%
X120266666Y-113252380D02*
X120266666Y-113966666D01*
X120219047Y-114109523D01*
X120123809Y-114204761D01*
X119980952Y-114252380D01*
X119885714Y-114252380D01*
X120695238Y-113347619D02*
X120742857Y-113300000D01*
X120838095Y-113252380D01*
X121076190Y-113252380D01*
X121171428Y-113300000D01*
X121219047Y-113347619D01*
X121266666Y-113442857D01*
X121266666Y-113538095D01*
X121219047Y-113680952D01*
X120647619Y-114252380D01*
X121266666Y-114252380D01*
%TO.C,J3*%
X115602380Y-89433333D02*
X116316666Y-89433333D01*
X116459523Y-89480952D01*
X116554761Y-89576190D01*
X116602380Y-89719047D01*
X116602380Y-89814285D01*
X115602380Y-89052380D02*
X115602380Y-88433333D01*
X115983333Y-88766666D01*
X115983333Y-88623809D01*
X116030952Y-88528571D01*
X116078571Y-88480952D01*
X116173809Y-88433333D01*
X116411904Y-88433333D01*
X116507142Y-88480952D01*
X116554761Y-88528571D01*
X116602380Y-88623809D01*
X116602380Y-88909523D01*
X116554761Y-89004761D01*
X116507142Y-89052380D01*
%TO.C,U6*%
X148852380Y-89861904D02*
X149661904Y-89861904D01*
X149757142Y-89814285D01*
X149804761Y-89766666D01*
X149852380Y-89671428D01*
X149852380Y-89480952D01*
X149804761Y-89385714D01*
X149757142Y-89338095D01*
X149661904Y-89290476D01*
X148852380Y-89290476D01*
X148852380Y-88385714D02*
X148852380Y-88576190D01*
X148900000Y-88671428D01*
X148947619Y-88719047D01*
X149090476Y-88814285D01*
X149280952Y-88861904D01*
X149661904Y-88861904D01*
X149757142Y-88814285D01*
X149804761Y-88766666D01*
X149852380Y-88671428D01*
X149852380Y-88480952D01*
X149804761Y-88385714D01*
X149757142Y-88338095D01*
X149661904Y-88290476D01*
X149423809Y-88290476D01*
X149328571Y-88338095D01*
X149280952Y-88385714D01*
X149233333Y-88480952D01*
X149233333Y-88671428D01*
X149280952Y-88766666D01*
X149328571Y-88814285D01*
X149423809Y-88861904D01*
%TO.C,U1*%
X170252380Y-89861904D02*
X171061904Y-89861904D01*
X171157142Y-89814285D01*
X171204761Y-89766666D01*
X171252380Y-89671428D01*
X171252380Y-89480952D01*
X171204761Y-89385714D01*
X171157142Y-89338095D01*
X171061904Y-89290476D01*
X170252380Y-89290476D01*
X171252380Y-88290476D02*
X171252380Y-88861904D01*
X171252380Y-88576190D02*
X170252380Y-88576190D01*
X170395238Y-88671428D01*
X170490476Y-88766666D01*
X170538095Y-88861904D01*
D12*
%TO.C,R1*%
X124745276Y-85777500D02*
X125254724Y-85777500D01*
X124745276Y-86822500D02*
X125254724Y-86822500D01*
%TO.C,U3*%
X125650000Y-98010000D02*
X123700000Y-98010000D01*
X125650000Y-92890000D02*
X127600000Y-92890000D01*
X125650000Y-92890000D02*
X122200000Y-92890000D01*
X125650000Y-98010000D02*
X127600000Y-98010000D01*
%TO.C,U4*%
X120070000Y-110050000D02*
X121570000Y-110050000D01*
X121570000Y-103150000D02*
X121570000Y-103420000D01*
X120070000Y-103150000D02*
X121570000Y-103150000D01*
X121570000Y-109780000D02*
X124400000Y-109780000D01*
X121570000Y-103420000D02*
X122670000Y-103420000D01*
X121570000Y-110050000D02*
X121570000Y-109780000D01*
%TO.C,J4*%
X156970000Y-88695000D02*
X159630000Y-88695000D01*
X159630000Y-88695000D02*
X159630000Y-91295000D01*
X156970000Y-86095000D02*
X158300000Y-86095000D01*
X156970000Y-87425000D02*
X156970000Y-86095000D01*
X156970000Y-91295000D02*
X159630000Y-91295000D01*
X156970000Y-88695000D02*
X156970000Y-91295000D01*
%TO.C,R17*%
X144454724Y-106677500D02*
X143945276Y-106677500D01*
X144454724Y-107722500D02*
X143945276Y-107722500D01*
%TO.C,C4*%
X134940000Y-116754437D02*
X134940000Y-122510000D01*
X136004437Y-115690000D02*
X134940000Y-116754437D01*
X140695563Y-115690000D02*
X139410000Y-115690000D01*
X141760000Y-116754437D02*
X141760000Y-122510000D01*
X136004437Y-115690000D02*
X137290000Y-115690000D01*
X141760000Y-122510000D02*
X139410000Y-122510000D01*
X140591250Y-115056250D02*
X139803750Y-115056250D01*
X140197500Y-114662500D02*
X140197500Y-115450000D01*
X140695563Y-115690000D02*
X141760000Y-116754437D01*
X134940000Y-122510000D02*
X137290000Y-122510000D01*
%TO.C,J14*%
X164335000Y-128528000D02*
X177095000Y-128528000D01*
X164335000Y-128528000D02*
X164335000Y-125868000D01*
X161735000Y-127198000D02*
X161735000Y-125868000D01*
X177095000Y-128528000D02*
X177095000Y-125868000D01*
X164335000Y-125868000D02*
X177095000Y-125868000D01*
X161735000Y-125868000D02*
X163065000Y-125868000D01*
%TO.C,C9*%
X152153733Y-94810000D02*
X152446267Y-94810000D01*
X152153733Y-93790000D02*
X152446267Y-93790000D01*
%TO.C,SW2*%
X123850000Y-83450000D02*
X122850000Y-83450000D01*
X115750000Y-76900000D02*
X121750000Y-76900000D01*
X115650000Y-81450000D02*
X115650000Y-78850000D01*
X115850000Y-83400000D02*
X121650000Y-83400000D01*
X121850000Y-81450000D02*
X121850000Y-78850000D01*
X123850000Y-82450000D02*
X123850000Y-83450000D01*
%TO.C,J6*%
X142195000Y-84900000D02*
X142195000Y-83570000D01*
X142195000Y-83570000D02*
X143525000Y-83570000D01*
X142195000Y-86170000D02*
X142195000Y-91310000D01*
X142195000Y-86170000D02*
X144855000Y-86170000D01*
X144855000Y-86170000D02*
X144855000Y-91310000D01*
X142195000Y-91310000D02*
X144855000Y-91310000D01*
%TO.C,C17*%
X148521267Y-112390000D02*
X148228733Y-112390000D01*
X148521267Y-113410000D02*
X148228733Y-113410000D01*
%TO.C,R14*%
X149035000Y-118127064D02*
X149035000Y-117672936D01*
X147565000Y-118127064D02*
X147565000Y-117672936D01*
%TO.C,R3*%
X166745276Y-98622500D02*
X167254724Y-98622500D01*
X166745276Y-97577500D02*
X167254724Y-97577500D01*
%TO.C,R13*%
X124745276Y-88777500D02*
X125254724Y-88777500D01*
X124745276Y-89822500D02*
X125254724Y-89822500D01*
%TO.C,C14*%
X169811252Y-106635000D02*
X169288748Y-106635000D01*
X169811252Y-105165000D02*
X169288748Y-105165000D01*
%TO.C,C13*%
X148203733Y-111160000D02*
X148496267Y-111160000D01*
X148203733Y-110140000D02*
X148496267Y-110140000D01*
%TO.C,C11*%
X159053733Y-104610000D02*
X159346267Y-104610000D01*
X159053733Y-103590000D02*
X159346267Y-103590000D01*
%TO.C,C19*%
X144153733Y-100410000D02*
X144446267Y-100410000D01*
X144153733Y-99390000D02*
X144446267Y-99390000D01*
%TO.C,J1*%
X166530000Y-86170000D02*
X166530000Y-91310000D01*
X163870000Y-86170000D02*
X163870000Y-91310000D01*
X163870000Y-91310000D02*
X166530000Y-91310000D01*
X163870000Y-84900000D02*
X163870000Y-83570000D01*
X163870000Y-86170000D02*
X166530000Y-86170000D01*
X163870000Y-83570000D02*
X165200000Y-83570000D01*
%TO.C,J2*%
X123750000Y-112292500D02*
X124800000Y-112292500D01*
X124800000Y-113342500D02*
X124800000Y-112292500D01*
X124600000Y-118992500D02*
X124600000Y-121692500D01*
X124600000Y-112492500D02*
X124600000Y-115092500D01*
X109900000Y-121692500D02*
X109900000Y-112492500D01*
X109900000Y-112492500D02*
X124600000Y-112492500D01*
X124600000Y-121692500D02*
X122700000Y-121692500D01*
X118700000Y-121692500D02*
X109900000Y-121692500D01*
%TO.C,C3*%
X127690000Y-116754437D02*
X127690000Y-122510000D01*
X128754437Y-115690000D02*
X130040000Y-115690000D01*
X133445563Y-115690000D02*
X132160000Y-115690000D01*
X134510000Y-122510000D02*
X132160000Y-122510000D01*
X128754437Y-115690000D02*
X127690000Y-116754437D01*
X133445563Y-115690000D02*
X134510000Y-116754437D01*
X132947500Y-114662500D02*
X132947500Y-115450000D01*
X133341250Y-115056250D02*
X132553750Y-115056250D01*
X127690000Y-122510000D02*
X130040000Y-122510000D01*
X134510000Y-116754437D02*
X134510000Y-122510000D01*
%TO.C,R10*%
X127177064Y-101035000D02*
X126722936Y-101035000D01*
X127177064Y-99565000D02*
X126722936Y-99565000D01*
D10*
%TO.C,P5*%
X128521000Y-127198000D02*
G75*
G03*
X128521000Y-127198000I-2286000J0D01*
G01*
%TO.C,P6*%
X180591000Y-122118000D02*
G75*
G03*
X180591000Y-122118000I-2286000J0D01*
G01*
D12*
%TO.C,J3*%
X113970000Y-93680000D02*
X112265000Y-93680000D01*
X112265000Y-84520000D02*
X113970000Y-84520000D01*
X115980000Y-93680000D02*
X117900000Y-93680000D01*
X112265000Y-93680000D02*
X112265000Y-84520000D01*
X117900000Y-84520000D02*
X115980000Y-84520000D01*
%TO.C,R16*%
X161877064Y-107765000D02*
X161422936Y-107765000D01*
X161877064Y-109235000D02*
X161422936Y-109235000D01*
%TO.C,R11*%
X131372936Y-87985000D02*
X131827064Y-87985000D01*
X131372936Y-86515000D02*
X131827064Y-86515000D01*
%TO.C,D1*%
X129750000Y-128700000D02*
X135450000Y-128700000D01*
X135450000Y-125700000D02*
X129750000Y-125700000D01*
X129750000Y-125700000D02*
X129750000Y-128700000D01*
%TO.C,R4*%
X151615000Y-117672936D02*
X151615000Y-118127064D01*
X153085000Y-117672936D02*
X153085000Y-118127064D01*
%TO.C,SW1*%
X170850000Y-114300000D02*
X170850000Y-116900000D01*
X177050000Y-114300000D02*
X177050000Y-116900000D01*
X176950000Y-118850000D02*
X170950000Y-118850000D01*
X168850000Y-112300000D02*
X169850000Y-112300000D01*
X168850000Y-113300000D02*
X168850000Y-112300000D01*
X176850000Y-112350000D02*
X171050000Y-112350000D01*
%TO.C,J5*%
X160420000Y-88695000D02*
X160420000Y-91295000D01*
X163080000Y-88695000D02*
X163080000Y-91295000D01*
X160420000Y-91295000D02*
X163080000Y-91295000D01*
X160420000Y-87425000D02*
X160420000Y-86095000D01*
X160420000Y-86095000D02*
X161750000Y-86095000D01*
X160420000Y-88695000D02*
X163080000Y-88695000D01*
%TO.C,C16*%
X169288748Y-110660000D02*
X169811252Y-110660000D01*
X169288748Y-109190000D02*
X169811252Y-109190000D01*
%TO.C,U6*%
X152685000Y-89100000D02*
X152685000Y-86900000D01*
X152685000Y-89100000D02*
X152685000Y-91300000D01*
X145915000Y-89100000D02*
X145915000Y-86900000D01*
X145915000Y-89100000D02*
X145915000Y-92700000D01*
%TO.C,C1*%
X167461252Y-103735000D02*
X166938748Y-103735000D01*
X167461252Y-102265000D02*
X166938748Y-102265000D01*
%TO.C,R5*%
X149615000Y-118127064D02*
X149615000Y-117672936D01*
X151085000Y-118127064D02*
X151085000Y-117672936D01*
%TO.C,R2*%
X124745276Y-90277500D02*
X125254724Y-90277500D01*
X124745276Y-91322500D02*
X125254724Y-91322500D01*
%TO.C,J15*%
X176020000Y-100295000D02*
X177350000Y-100295000D01*
X176020000Y-101625000D02*
X176020000Y-100295000D01*
X176020000Y-102895000D02*
X178680000Y-102895000D01*
X178680000Y-102895000D02*
X178680000Y-108035000D01*
X176020000Y-108035000D02*
X178680000Y-108035000D01*
X176020000Y-102895000D02*
X176020000Y-108035000D01*
%TO.C,R12*%
X125254724Y-88322500D02*
X124745276Y-88322500D01*
X125254724Y-87277500D02*
X124745276Y-87277500D01*
%TO.C,C6*%
X162065000Y-118211252D02*
X162065000Y-117688748D01*
X163535000Y-118211252D02*
X163535000Y-117688748D01*
%TO.C,J8*%
X135295000Y-88695000D02*
X135295000Y-91295000D01*
X135295000Y-87425000D02*
X135295000Y-86095000D01*
X135295000Y-88695000D02*
X137955000Y-88695000D01*
X135295000Y-91295000D02*
X137955000Y-91295000D01*
X135295000Y-86095000D02*
X136625000Y-86095000D01*
X137955000Y-88695000D02*
X137955000Y-91295000D01*
%TO.C,U5*%
X131190000Y-106550000D02*
X131190000Y-100540000D01*
X138010000Y-104300000D02*
X138010000Y-100540000D01*
X138010000Y-100540000D02*
X136750000Y-100540000D01*
X131190000Y-100540000D02*
X132450000Y-100540000D01*
%TO.C,C20*%
X144053733Y-108240000D02*
X144346267Y-108240000D01*
X144053733Y-109260000D02*
X144346267Y-109260000D01*
%TO.C,R8*%
X173745276Y-96077500D02*
X174254724Y-96077500D01*
X173745276Y-97122500D02*
X174254724Y-97122500D01*
%TO.C,C12*%
X159703733Y-112090000D02*
X159996267Y-112090000D01*
X159703733Y-113110000D02*
X159996267Y-113110000D01*
%TO.C,C15*%
X169288748Y-108635000D02*
X169811252Y-108635000D01*
X169288748Y-107165000D02*
X169811252Y-107165000D01*
%TO.C,R9*%
X127127064Y-101565000D02*
X126672936Y-101565000D01*
X127127064Y-103035000D02*
X126672936Y-103035000D01*
%TO.C,R15*%
X162104724Y-111022500D02*
X161595276Y-111022500D01*
X162104724Y-109977500D02*
X161595276Y-109977500D01*
%TO.C,C18*%
X159703733Y-113590000D02*
X159996267Y-113590000D01*
X159703733Y-114610000D02*
X159996267Y-114610000D01*
%TO.C,R7*%
X165635000Y-117722936D02*
X165635000Y-118177064D01*
X164165000Y-117722936D02*
X164165000Y-118177064D01*
%TO.C,J9*%
X138745000Y-88695000D02*
X138745000Y-91295000D01*
X141405000Y-88695000D02*
X141405000Y-91295000D01*
X138745000Y-86095000D02*
X140075000Y-86095000D01*
X138745000Y-91295000D02*
X141405000Y-91295000D01*
X138745000Y-87425000D02*
X138745000Y-86095000D01*
X138745000Y-88695000D02*
X141405000Y-88695000D01*
%TO.C,C10*%
X159053733Y-105090000D02*
X159346267Y-105090000D01*
X159053733Y-106110000D02*
X159346267Y-106110000D01*
%TO.C,J11*%
X134811000Y-77608000D02*
X136141000Y-77608000D01*
X137411000Y-80268000D02*
X137411000Y-77608000D01*
X134811000Y-78938000D02*
X134811000Y-77608000D01*
X155251000Y-80268000D02*
X155251000Y-77608000D01*
X137411000Y-80268000D02*
X155251000Y-80268000D01*
X137411000Y-77608000D02*
X155251000Y-77608000D01*
%TO.C,R6*%
X167685000Y-118177064D02*
X167685000Y-117722936D01*
X166215000Y-118177064D02*
X166215000Y-117722936D01*
%TO.C,Y1*%
X142650000Y-101650000D02*
X142650000Y-105650000D01*
X145950000Y-101650000D02*
X142650000Y-101650000D01*
D10*
%TO.C,P7*%
X129791000Y-78938000D02*
G75*
G03*
X129791000Y-78938000I-2286000J0D01*
G01*
D12*
%TO.C,J12*%
X156655000Y-78938000D02*
X156655000Y-77608000D01*
X159255000Y-80268000D02*
X177095000Y-80268000D01*
X159255000Y-80268000D02*
X159255000Y-77608000D01*
X177095000Y-80268000D02*
X177095000Y-77608000D01*
X159255000Y-77608000D02*
X177095000Y-77608000D01*
X156655000Y-77608000D02*
X157985000Y-77608000D01*
%TO.C,D3*%
X133460000Y-85960000D02*
X133460000Y-84040000D01*
X130600000Y-85960000D02*
X133460000Y-85960000D01*
X133460000Y-84040000D02*
X130600000Y-84040000D01*
%TO.C,U1*%
X167415000Y-89100000D02*
X167415000Y-86900000D01*
X174185000Y-89100000D02*
X174185000Y-91300000D01*
X167415000Y-89100000D02*
X167415000Y-92700000D01*
X174185000Y-89100000D02*
X174185000Y-86900000D01*
D10*
%TO.C,P8*%
X180591000Y-94178000D02*
G75*
G03*
X180591000Y-94178000I-2286000J0D01*
G01*
D12*
%TO.C,J13*%
X141475000Y-128528000D02*
X141475000Y-125868000D01*
X159315000Y-128528000D02*
X159315000Y-125868000D01*
X138875000Y-127198000D02*
X138875000Y-125868000D01*
X138875000Y-125868000D02*
X140205000Y-125868000D01*
X141475000Y-128528000D02*
X159315000Y-128528000D01*
X141475000Y-125868000D02*
X159315000Y-125868000D01*
%TO.C,C2*%
X167146267Y-101710000D02*
X166853733Y-101710000D01*
X167146267Y-100690000D02*
X166853733Y-100690000D01*
%TO.C,Q2*%
X157000000Y-110825000D02*
X157000000Y-110725000D01*
X157000000Y-107775000D02*
X157000000Y-107875000D01*
X158400000Y-109775000D02*
X158400000Y-110825000D01*
X158400000Y-107775000D02*
X157000000Y-107775000D01*
X157000000Y-108825000D02*
X157000000Y-109775000D01*
X158400000Y-108825000D02*
X158400000Y-107775000D01*
X158400000Y-110825000D02*
X157000000Y-110825000D01*
%TO.C,D2*%
X175860000Y-99560000D02*
X175860000Y-97640000D01*
X173000000Y-99560000D02*
X175860000Y-99560000D01*
X175860000Y-97640000D02*
X173000000Y-97640000D01*
%TO.C,C8*%
X166853733Y-100160000D02*
X167146267Y-100160000D01*
X166853733Y-99140000D02*
X167146267Y-99140000D01*
%TO.C,U7*%
X155377743Y-99943000D02*
G75*
G03*
X155377743Y-99943000I-172743J0D01*
G01*
%TO.C,Q1*%
X118775000Y-98275000D02*
X117725000Y-98275000D01*
X118775000Y-99675000D02*
X118775000Y-98275000D01*
X116775000Y-99675000D02*
X117725000Y-99675000D01*
X116775000Y-98275000D02*
X115725000Y-98275000D01*
X115725000Y-98275000D02*
X115725000Y-99675000D01*
X115725000Y-99675000D02*
X115825000Y-99675000D01*
X118675000Y-99675000D02*
X118775000Y-99675000D01*
%TO.C,U2*%
X161965711Y-98575711D02*
G75*
G03*
X161965711Y-98575711I-141421J0D01*
G01*
%TD*%
D15*
%TO.C,P5*%
X126235000Y-127198000D03*
%TD*%
%TO.C,P6*%
X178305000Y-122118000D03*
%TD*%
%TO.C,P7*%
X127505000Y-78938000D03*
%TD*%
%TO.C,P8*%
X178305000Y-94178000D03*
%TD*%
M02*
